<svg width="1024" height="1024" xmlns="http://www.w3.org/2000/svg" p-id="8079" version="1.1" class="icon"
    t="1733119880531">
    <!-- 定义剪切区域 -->
    <defs>
        <clipPath id="clip1">
            <!-- 剪切区域：上半部分透明，剪裁下半部分 -->
            <rect x="0" y="0" width="100%" height="100%" />
        </clipPath>
    </defs>
    <g>
        <title>Layer 1</title>
        <rect id="svg_1" stroke-width="0" stroke="#ffffff" fill="none" height="1024" width="1024" y="0" x="0" />
        <path id="svg_2" fill="#ffffff"
            d="m841.14286,455.57142l0,73.14286q0,126.28572 -84.28572,219.71429t-208.28571,107.14285l0,75.42858l146.28571,0q14.85715,0 25.71429,10.85714t10.85714,25.71428t-10.85714,25.71429t-25.71429,10.85714l-365.71428,0q-14.85715,0 -25.71429,-10.85714t-10.85714,-25.71429t10.85714,-25.71428t25.71429,-10.85714l146.28571,0l0,-75.42858q-124,-13.71428 -208.28571,-107.14285t-84.28572,-219.71429l0,-73.14286q0,-14.85714 10.85715,-25.71428t25.71428,-10.85715t25.71429,10.85715t10.85714,25.71428l0,73.14286q0,105.71429 75.14286,180.85714t180.85714,75.14286t180.85714,-75.14286t75.14286,-180.85714l0,-73.14286q0,-14.85714 10.85714,-25.71428t25.71429,-10.85715t25.71429,10.85715t10.85714,25.71428z" />
        <!-- 主路径（用于填充）：应用裁剪，裁剪填充区域 -->
        <path fill="#ffffff" stroke="none" clip-path="url(#clip1)"
            d="m694.85714,232.85714l0,292.57143q0,75.42857 -53.71428,129.14286t-129.14286,53.71429t-129.14286,-53.71429t-53.71428,-129.14286l0,-292.57143q0,-75.42857 53.71428,-129.14285t129.14286,-53.71429t129.14286,53.71429t53.71428,129.14285z" />

        <!-- 主路径（用于边框）：不进行裁剪，保留边框 -->
        <path fill="none" stroke="#ffffff" stroke-width="60"
            d="m694.85714,232.85714l0,292.57143q0,75.42857 -53.71428,129.14286t-129.14286,53.71429t-129.14286,-53.71429t-53.71428,-129.14286l0,-292.57143q0,-75.42857 53.71428,-129.14285t129.14286,-53.71429t129.14286,53.71429t53.71428,129.14285z" />

    </g>
</svg>