<svg t="1736260566049" class="icon" viewBox="0 0 1024 1024" version="1.1" xmlns="http://www.w3.org/2000/svg" p-id="9895"
    width="512" height="512">
    <path
        d="M841.142856 402.285775l0 73.14285q0 126.317702-84.260563 219.721122t-208.310837 107.154275l0 75.410278 146.2857 0q14.847999 0 25.746283 10.825142t10.825142 25.746283-10.825142 25.746283-25.746283 10.825142l-365.71425 0q-14.847999 0-25.746283-10.825142t-10.825142-25.746283 10.825142-25.746283 25.746283-10.825142l146.2857 0 0-75.410278q-123.977131-13.677713-208.310837-107.154275t-84.260563-219.721122l0-73.14285q0-14.847999 10.825142-25.746283t25.746283-10.825142 25.746283 10.825142 10.825142 25.746283l0 73.14285q0 105.691418 75.117707 180.882268t180.882268 75.117707 180.882268-75.117707 75.117707-180.882268l0-73.14285q0-14.847999 10.825142-25.746283t25.746283-10.825142 25.746283 10.825142 10.825142 25.746283zM694.857156 182.857224l0 292.5714q0 75.410278-53.686852 129.170273t-129.170273 53.686852-129.170273-53.686852-53.686852-129.170273l0-292.5714q0-75.410278 53.686852-129.170273t129.170273-53.686852 129.170273 53.686852 53.686852 129.170273z"
        fill="#cdcdcd" p-id="9896"></path>
</svg>